<svg width="242" height="67" viewBox="0 0 242 67" fill="none" xmlns="http://www.w3.org/2000/svg">
<path d="M10.4205 14.9801V9.90909H34.3125V14.9801H25.4062V39H19.3267V14.9801H10.4205ZM38.2472 39V9.90909H44.3977V21.9119H56.8835V9.90909H63.0199V39H56.8835V26.983H44.3977V39H38.2472ZM68.0909 39V9.90909H87.6932V14.9801H74.2415V21.9119H86.6847V26.983H74.2415V33.929H87.75V39H68.0909ZM112.821 28.8864H118.048L120.676 32.267L123.261 35.2784L128.134 41.3864H122.395L119.043 37.267L117.324 34.8239L112.821 28.8864ZM128.574 24.4545C128.574 27.6269 127.973 30.3258 126.77 32.5511C125.577 34.7765 123.948 36.4763 121.884 37.6506C119.829 38.8153 117.518 39.3977 114.952 39.3977C112.366 39.3977 110.046 38.8106 107.991 37.6364C105.937 36.4621 104.313 34.7623 103.119 32.5369C101.926 30.3116 101.33 27.6174 101.33 24.4545C101.33 21.2822 101.926 18.5833 103.119 16.358C104.313 14.1326 105.937 12.4375 107.991 11.2727C110.046 10.0985 112.366 9.51136 114.952 9.51136C117.518 9.51136 119.829 10.0985 121.884 11.2727C123.948 12.4375 125.577 14.1326 126.77 16.358C127.973 18.5833 128.574 21.2822 128.574 24.4545ZM122.338 24.4545C122.338 22.3996 122.03 20.6667 121.415 19.2557C120.809 17.8447 119.952 16.7746 118.844 16.0455C117.736 15.3163 116.438 14.9517 114.952 14.9517C113.465 14.9517 112.168 15.3163 111.06 16.0455C109.952 16.7746 109.09 17.8447 108.474 19.2557C107.868 20.6667 107.565 22.3996 107.565 24.4545C107.565 26.5095 107.868 28.2424 108.474 29.6534C109.09 31.0644 109.952 32.1345 111.06 32.8636C112.168 33.5928 113.465 33.9574 114.952 33.9574C116.438 33.9574 117.736 33.5928 118.844 32.8636C119.952 32.1345 120.809 31.0644 121.415 29.6534C122.03 28.2424 122.338 26.5095 122.338 24.4545ZM138.585 39L130.261 9.90909H136.979L141.795 30.1222H142.036L147.349 9.90909H153.102L158.4 30.1648H158.656L163.471 9.90909H170.19L161.866 39H155.871L150.332 19.9801H150.104L144.579 39H138.585ZM179.632 9.90909V39H173.482V9.90909H179.632ZM184.38 39V35.3494L198.897 14.9801H184.352V9.90909H206.624V13.5597L192.093 33.929H206.653V39H184.38Z" fill="white"/>
<path d="M2.47692 63H0.367543L4.2081 52.0909H6.64773L10.4936 63H8.38423L5.47053 54.3281H5.3853L2.47692 63ZM2.54616 58.7227H8.29901V60.31H2.54616V58.7227ZM15.6512 63V52.0909H19.7421C20.5802 52.0909 21.2833 52.2365 21.8515 52.5277C22.4232 52.8189 22.8547 53.2273 23.1459 53.7528C23.4406 54.2749 23.588 54.8839 23.588 55.5799C23.588 56.2795 23.4388 56.8867 23.1405 57.4016C22.8458 57.913 22.4108 58.3089 21.8355 58.5895C21.2602 58.8665 20.5535 59.005 19.7155 59.005H16.8018V57.3643H19.4491C19.9392 57.3643 20.3405 57.2969 20.653 57.1619C20.9655 57.0234 21.1963 56.8228 21.3454 56.56C21.4981 56.2937 21.5745 55.967 21.5745 55.5799C21.5745 55.1928 21.4981 54.8626 21.3454 54.5891C21.1927 54.3121 20.9601 54.1026 20.6476 53.9606C20.3351 53.815 19.9321 53.7422 19.4385 53.7422H17.6274V63H15.6512ZM21.2868 58.0568L23.9875 63H21.7822L19.1295 58.0568H21.2868ZM25.407 63V52.0909H32.5022V53.7475H27.3833V56.7092H32.1347V58.3658H27.3833V61.3434H32.5448V63H25.407ZM35.9193 63H33.8099L37.6505 52.0909H40.0901L43.936 63H41.8266L38.9129 54.3281H38.8277L35.9193 63ZM35.9885 58.7227H41.7414V60.31H35.9885V58.7227ZM45.3729 63V52.0909H47.3491V61.3434H52.1538V63H45.3729ZM57.1103 53.7475V52.0909H65.8141V53.7475H62.4423V63H60.4821V53.7475H57.1103ZM69.4682 52.0909V63H67.492V52.0909H69.4682ZM71.6082 52.0909H74.0265L77.2652 59.9957H77.393L80.6317 52.0909H83.05V63H81.1537V55.5053H81.0525L78.0376 62.968H76.6207L73.6057 55.4893H73.5045V63H71.6082V52.0909ZM85.202 63V52.0909H92.2971V53.7475H87.1782V56.7092H91.9296V58.3658H87.1782V61.3434H92.3398V63H85.202ZM102.098 59.3352H103.888L104.948 60.7095L105.704 61.6044L107.521 63.9375H105.603L104.367 62.3714L103.84 61.6257L102.098 59.3352ZM107.782 57.5455C107.782 58.7209 107.562 59.7276 107.121 60.5657C106.685 61.4002 106.088 62.0394 105.332 62.4833C104.579 62.9272 103.725 63.1491 102.769 63.1491C101.814 63.1491 100.958 62.9272 100.202 62.4833C99.4491 62.0359 98.8525 61.3949 98.4122 60.5604C97.9754 59.7223 97.757 58.7173 97.757 57.5455C97.757 56.37 97.9754 55.3651 98.4122 54.5305C98.8525 53.6925 99.4491 53.0515 100.202 52.6076C100.958 52.1637 101.814 51.9418 102.769 51.9418C103.725 51.9418 104.579 52.1637 105.332 52.6076C106.088 53.0515 106.685 53.6925 107.121 54.5305C107.562 55.3651 107.782 56.37 107.782 57.5455ZM105.795 57.5455C105.795 56.718 105.665 56.0202 105.406 55.4521C105.15 54.8803 104.795 54.4489 104.341 54.1577C103.886 53.8629 103.362 53.7156 102.769 53.7156C102.176 53.7156 101.653 53.8629 101.198 54.1577C100.744 54.4489 100.387 54.8803 100.127 55.4521C99.8717 56.0202 99.7439 56.718 99.7439 57.5455C99.7439 58.3729 99.8717 59.0724 100.127 59.6442C100.387 60.2124 100.744 60.6438 101.198 60.9386C101.653 61.2298 102.176 61.3754 102.769 61.3754C103.362 61.3754 103.886 61.2298 104.341 60.9386C104.795 60.6438 105.15 60.2124 105.406 59.6442C105.665 59.0724 105.795 58.3729 105.795 57.5455ZM111.682 63L108.604 52.0909H110.729L112.694 60.1076H112.796L114.894 52.0909H116.828L118.932 60.1129H119.028L120.993 52.0909H123.119L120.04 63H118.09L115.906 55.3455H115.821L113.632 63H111.682ZM126.465 52.0909V63H124.489V52.0909H126.465ZM128.403 63V61.7695L133.996 53.7475H128.371V52.0909H136.446V53.3214L130.858 61.3434H136.478V63H128.403ZM143.512 63H141.403L145.243 52.0909H147.683L151.529 63H149.419L146.506 54.3281H146.42L143.512 63ZM143.581 58.7227H149.334V60.31H143.581V58.7227ZM152.966 63V52.0909H157.057C157.895 52.0909 158.598 52.2472 159.166 52.5597C159.738 52.8722 160.169 53.3018 160.46 53.8487C160.755 54.392 160.902 55.0099 160.902 55.7024C160.902 56.402 160.755 57.0234 160.46 57.5668C160.166 58.1101 159.731 58.538 159.155 58.8505C158.58 59.1594 157.872 59.3139 157.03 59.3139H154.319V57.6893H156.764C157.254 57.6893 157.655 57.604 157.967 57.4336C158.28 57.2631 158.511 57.0288 158.66 56.7305C158.813 56.4322 158.889 56.0895 158.889 55.7024C158.889 55.3153 158.813 54.9744 158.66 54.6797C158.511 54.3849 158.278 54.1559 157.962 53.9925C157.65 53.8256 157.247 53.7422 156.753 53.7422H154.942V63H152.966ZM162.619 63V52.0909H166.71C167.548 52.0909 168.251 52.2472 168.819 52.5597C169.391 52.8722 169.822 53.3018 170.114 53.8487C170.408 54.392 170.556 55.0099 170.556 55.7024C170.556 56.402 170.408 57.0234 170.114 57.5668C169.819 58.1101 169.384 58.538 168.809 58.8505C168.233 59.1594 167.525 59.3139 166.683 59.3139H163.972V57.6893H166.417C166.907 57.6893 167.308 57.604 167.621 57.4336C167.933 57.2631 168.164 57.0288 168.313 56.7305C168.466 56.4322 168.542 56.0895 168.542 55.7024C168.542 55.3153 168.466 54.9744 168.313 54.6797C168.164 54.3849 167.931 54.1559 167.615 53.9925C167.303 53.8256 166.9 53.7422 166.406 53.7422H164.595V63H162.619ZM172.272 63V52.0909H174.248V61.3434H179.053V63H172.272ZM182.745 52.0909V63H180.768V52.0909H182.745ZM194.222 55.7717H192.23C192.173 55.445 192.069 55.1555 191.916 54.9034C191.763 54.6477 191.573 54.4311 191.346 54.2536C191.119 54.076 190.859 53.9428 190.568 53.854C190.281 53.7617 189.97 53.7156 189.636 53.7156C189.043 53.7156 188.517 53.8647 188.059 54.163C187.601 54.4577 187.243 54.891 186.983 55.4627C186.724 56.0309 186.594 56.7251 186.594 57.5455C186.594 58.38 186.724 59.0831 186.983 59.6548C187.246 60.223 187.605 60.6527 188.059 60.9439C188.517 61.2315 189.041 61.3754 189.631 61.3754C189.957 61.3754 190.263 61.3327 190.547 61.2475C190.835 61.1587 191.092 61.0291 191.319 60.8587C191.55 60.6882 191.744 60.4787 191.9 60.2301C192.06 59.9815 192.17 59.6974 192.23 59.3778L194.222 59.3885C194.148 59.907 193.986 60.3935 193.738 60.848C193.493 61.3026 193.171 61.7038 192.773 62.0518C192.376 62.3963 191.911 62.6662 191.378 62.8615C190.845 63.0533 190.254 63.1491 189.604 63.1491C188.645 63.1491 187.789 62.9272 187.037 62.4833C186.284 62.0394 185.691 61.3984 185.257 60.5604C184.824 59.7223 184.608 58.7173 184.608 57.5455C184.608 56.37 184.826 55.3651 185.263 54.5305C185.7 53.6925 186.294 53.0515 187.047 52.6076C187.8 52.1637 188.652 51.9418 189.604 51.9418C190.211 51.9418 190.776 52.027 191.298 52.1974C191.82 52.3679 192.285 52.6183 192.694 52.9485C193.102 53.2752 193.438 53.6765 193.7 54.1523C193.967 54.6246 194.141 55.1644 194.222 55.7717ZM197.301 63H195.192L199.032 52.0909H201.472L205.318 63H203.208L200.295 54.3281H200.21L197.301 63ZM197.37 58.7227H203.123V60.31H197.37V58.7227ZM204.957 53.7475V52.0909H213.661V53.7475H210.289V63H208.329V53.7475H204.957ZM217.315 52.0909V63H215.339V52.0909H217.315ZM229.203 57.5455C229.203 58.7209 228.983 59.7276 228.542 60.5657C228.105 61.4002 227.509 62.0394 226.752 62.4833C226 62.9272 225.146 63.1491 224.19 63.1491C223.235 63.1491 222.379 62.9272 221.623 62.4833C220.87 62.0359 220.273 61.3949 219.833 60.5604C219.396 59.7223 219.178 58.7173 219.178 57.5455C219.178 56.37 219.396 55.3651 219.833 54.5305C220.273 53.6925 220.87 53.0515 221.623 52.6076C222.379 52.1637 223.235 51.9418 224.19 51.9418C225.146 51.9418 226 52.1637 226.752 52.6076C227.509 53.0515 228.105 53.6925 228.542 54.5305C228.983 55.3651 229.203 56.37 229.203 57.5455ZM227.216 57.5455C227.216 56.718 227.086 56.0202 226.827 55.4521C226.571 54.8803 226.216 54.4489 225.762 54.1577C225.307 53.8629 224.783 53.7156 224.19 53.7156C223.597 53.7156 223.074 53.8629 222.619 54.1577C222.164 54.4489 221.808 54.8803 221.548 55.4521C221.293 56.0202 221.165 56.718 221.165 57.5455C221.165 58.3729 221.293 59.0724 221.548 59.6442C221.808 60.2124 222.164 60.6438 222.619 60.9386C223.074 61.2298 223.597 61.3754 224.19 61.3754C224.783 61.3754 225.307 61.2298 225.762 60.9386C226.216 60.6438 226.571 60.2124 226.827 59.6442C227.086 59.0724 227.216 58.3729 227.216 57.5455ZM240.036 52.0909V63H238.278L233.138 55.5692H233.047V63H231.071V52.0909H232.84L237.975 59.527H238.07V52.0909H240.036Z" fill="white"/>
</svg>
