<?xml version="1.0" standalone="no"?>
<!DOCTYPE svg PUBLIC "-//W3C//DTD SVG 20010904//EN"
 "http://www.w3.org/TR/2001/REC-SVG-20010904/DTD/svg10.dtd">
<svg version="1.0" xmlns="http://www.w3.org/2000/svg"
 width="612.000000pt" height="408.000000pt" viewBox="0 0 612.000000 408.000000"
 preserveAspectRatio="xMidYMid meet">

<g transform="translate(0.000000,408.000000) scale(0.100000,-0.100000)"
fill="#000000" stroke="none">
<path d="M2845 3843 c-44 -8 -104 -26 -133 -40 -62 -30 -180 -137 -243 -220
-24 -32 -47 -60 -50 -63 -17 -14 -29 -55 -44 -155 -9 -60 -23 -144 -32 -185
-8 -41 -14 -110 -14 -153 1 -77 0 -77 -23 -71 -13 3 -34 1 -45 -6 -20 -10 -21
-16 -15 -118 l7 -107 -36 -2 c-20 -1 -51 -8 -69 -17 -51 -23 -85 -18 -97 13
-21 56 -21 115 -1 181 11 36 23 90 26 121 6 54 6 56 -22 67 -60 24 -84 25
-105 6 -18 -16 -19 -26 -13 -84 3 -36 13 -84 21 -107 10 -31 11 -48 3 -62 -5
-11 -10 -78 -10 -149 0 -149 -5 -142 95 -142 84 0 95 5 95 45 0 61 66 54 72
-8 2 -20 8 -32 18 -32 20 0 39 -25 40 -51 0 -37 38 -74 74 -74 17 0 37 5 43
11 9 9 13 2 18 -27 3 -22 10 -57 15 -79 5 -22 15 -67 21 -100 7 -33 16 -68 21
-78 5 -10 15 -49 22 -87 13 -65 12 -70 -4 -70 -18 0 -53 44 -53 67 0 7 -4 13
-9 13 -4 0 -8 7 -8 16 0 13 -7 15 -36 11 -52 -9 -66 -24 -62 -69 2 -21 -1 -38
-6 -38 -6 0 -3 -7 6 -17 25 -24 118 -30 150 -9 25 16 26 16 32 -6 15 -57 0
-223 -22 -237 -5 -3 -24 -34 -41 -68 -29 -57 -35 -63 -84 -78 -29 -9 -77 -32
-107 -50 -72 -43 -136 -71 -182 -79 -36 -6 -37 -6 -34 21 1 15 -4 46 -12 68
-16 47 -11 97 24 244 24 99 24 104 7 117 -10 7 -35 14 -55 14 -50 0 -54 -18
-40 -169 6 -64 10 -127 8 -141 -1 -14 -6 -59 -11 -100 -5 -41 -8 -78 -7 -81 1
-4 -13 -12 -31 -19 -18 -6 -54 -23 -81 -37 -34 -17 -52 -21 -59 -14 -14 14
-70 15 -62 1 6 -10 -25 -21 -60 -21 -40 -1 -252 10 -324 15 -99 8 -105 3 -96
-88 4 -39 13 -79 20 -89 12 -18 -6 -61 -91 -214 -28 -51 -30 -52 -86 -58 -31
-4 -61 -4 -66 -1 -16 10 -21 56 -6 56 8 0 14 5 14 10 0 6 7 10 15 10 8 0 15 4
15 9 0 5 13 12 28 16 35 7 52 34 59 96 9 77 -8 76 -247 -6 -89 -31 -151 -47
-181 -46 -69 1 -95 -27 -91 -96 3 -44 7 -53 23 -53 21 0 29 -26 26 -85 -2 -37
0 -40 27 -43 33 -4 171 26 316 68 52 15 97 26 99 24 9 -9 -103 -228 -250 -489
-19 -33 -67 -126 -107 -208 -41 -81 -81 -151 -90 -157 -11 -6 289 -9 860 -10
l876 0 2 478 c1 392 4 680 10 806 1 14 11 6 36 -30 61 -86 96 -125 110 -120 7
3 11 0 8 -7 -2 -7 5 -12 20 -12 13 0 22 3 19 7 -2 5 -1 8 4 8 4 0 20 10 35 23
15 12 39 30 53 40 25 18 53 70 72 132 7 24 15 31 43 35 29 4 36 10 40 35 3 16
14 34 25 40 69 36 73 42 68 103 -4 45 -2 60 11 71 9 8 16 9 16 3 0 -7 14 -6
43 2 23 8 69 21 101 31 155 45 352 252 450 474 25 57 46 113 46 125 l-1 21
-17 -21 c-14 -16 -23 -19 -40 -13 -17 6 -22 5 -22 -7 0 -8 -6 -14 -12 -12 -18
4 -67 -42 -62 -57 3 -7 -2 -15 -12 -19 -13 -5 -15 -2 -9 16 4 13 11 48 15 78
5 30 14 70 20 88 19 52 5 91 -55 155 -56 59 -68 66 -39 22 14 -22 14 -26 0
-47 -9 -12 -16 -34 -15 -48 0 -22 1 -23 8 -5 8 19 8 19 20 -3 11 -20 8 -26
-10 -24 -4 1 -6 -6 -5 -16 1 -14 -11 -18 -74 -22 -47 -3 -70 -8 -62 -14 9 -5
11 -17 8 -32 -4 -13 -3 -24 1 -24 13 0 82 26 89 33 15 14 41 6 52 -15 17 -34
20 -128 5 -128 -7 0 -13 -9 -13 -20 0 -21 26 -28 32 -8 3 8 9 8 24 0 10 -6 14
-12 8 -12 -7 0 -15 -12 -18 -27 -12 -50 -31 -83 -45 -83 -12 0 -12 3 -3 12 7
7 12 25 12 40 0 15 5 28 10 28 6 0 10 5 10 12 0 9 -3 9 -11 1 -6 -6 -17 -9
-23 -7 -6 2 -20 -11 -30 -30 -10 -19 -24 -34 -30 -33 -6 1 -10 -6 -8 -15 2
-10 -2 -18 -9 -18 -7 0 -9 -10 -7 -25 3 -15 1 -22 -5 -18 -6 4 -8 0 -4 -10 3
-10 2 -17 -3 -17 -5 0 -11 -8 -13 -17 -2 -10 -3 -8 -2 5 1 13 -3 22 -12 22 -8
0 -11 -5 -7 -12 5 -8 -2 -9 -23 -5 -27 5 -32 3 -38 -20 -6 -26 4 -48 12 -25 6
17 23 15 23 -3 0 -8 -4 -15 -9 -15 -5 0 -14 -13 -21 -30 -14 -34 -40 -40 -40
-10 0 13 5 18 15 14 10 -4 15 0 15 14 0 11 -7 22 -15 26 -9 3 -15 0 -15 -10 0
-8 -4 -12 -10 -9 -5 3 -10 -2 -10 -11 0 -13 -3 -15 -11 -7 -8 8 -15 36 -18 77
-1 5 -8 3 -16 -4 -22 -18 -29 -6 -9 15 15 14 15 18 3 26 -10 6 -10 9 -1 9 6 0
12 10 12 23 0 12 7 31 15 41 13 18 12 22 -17 48 -17 15 -40 28 -50 28 -24 0
-34 26 -18 45 14 17 5 35 -17 35 -9 0 -13 3 -10 7 4 3 -1 11 -10 18 -14 11
-11 13 21 19 20 4 41 4 46 1 6 -3 16 -3 23 2 7 5 -12 10 -48 13 l-60 5 1 40
c1 21 7 41 13 43 6 2 11 10 11 17 0 8 10 15 23 17 12 2 22 10 22 18 0 9 12 17
30 20 17 3 51 12 76 19 45 12 46 14 46 52 0 26 -4 39 -13 39 -8 0 -14 -9 -14
-20 0 -21 -15 -27 -25 -10 -4 6 -28 10 -53 8 -41 -3 -48 0 -59 22 -20 42 -23
84 -9 112 8 15 14 46 14 70 -1 159 2 196 18 202 27 10 52 -12 69 -61 36 -102
41 -109 107 -143 53 -29 76 -34 148 -38 155 -8 213 25 249 141 23 76 36 102
62 131 22 23 22 26 10 59 -9 22 -18 26 -81 32 -54 5 -78 13 -100 32 -16 13
-37 23 -47 22 -10 -2 -51 3 -92 10 -40 7 -91 11 -112 8 -22 -3 -39 -1 -39 3 0
7 -68 -4 -74 -12 -1 -1 -8 -22 -15 -45 -13 -38 -30 -52 -67 -53 -15 0 -84 63
-84 77 0 21 -51 61 -85 67 -41 8 -64 34 -68 77 -4 35 23 79 49 79 10 0 10 6
-2 28 -7 15 -14 54 -14 88 0 53 3 63 28 85 30 27 69 49 85 49 6 0 22 13 36 28
34 38 55 42 159 31 222 -22 291 -36 327 -63 45 -34 84 -104 126 -220 17 -50
38 -94 45 -99 10 -6 51 -122 68 -191 1 -5 0 49 -2 120 -3 126 -29 271 -52 299
-6 7 -10 17 -9 21 6 28 -89 163 -103 148 -3 -3 -14 13 -24 34 -20 42 -115 123
-205 174 -95 55 -304 72 -484 41z m-5 -863 c18 -6 20 -8 7 -9 -10 -1 -15 -5
-12 -11 4 -6 -5 -9 -19 -8 -17 2 -26 8 -26 20 0 19 10 21 50 8z m689 -14 c39
-9 48 -16 57 -44 13 -42 1 -152 -23 -201 -24 -49 -71 -64 -183 -58 -94 5 -160
28 -197 68 -30 33 -53 101 -53 158 0 54 14 67 82 77 l43 6 -42 -22 c-24 -12
-43 -29 -43 -39 0 -13 -2 -13 -9 -2 -5 7 -11 9 -14 4 -3 -5 -2 -15 4 -23 5 -8
9 -25 9 -37 0 -41 49 -81 122 -100 74 -19 90 -15 59 16 -25 25 -27 41 -6 41 8
0 15 4 15 9 0 5 10 11 21 14 14 4 20 11 16 20 -8 21 4 29 17 13 6 -8 26 -17
44 -21 26 -5 32 -3 32 10 0 9 -4 14 -9 11 -5 -4 -34 4 -65 15 -40 16 -56 27
-56 40 0 12 -7 19 -20 19 -28 0 -25 17 8 35 29 16 103 13 191 -9z m-720 -148
c1 6 6 12 11 12 6 0 10 -8 8 -17 -2 -12 7 -19 30 -24 45 -9 49 -15 26 -40 -24
-26 -67 -49 -91 -48 -17 1 -17 2 0 6 19 5 22 18 7 28 -5 3 -10 30 -9 58 0 38
3 47 9 32 5 -11 9 -14 9 -7z m-115 -113 c6 -16 -10 -20 -39 -9 -13 5 -14 8 -3
15 20 13 35 11 42 -6z m76 -77 c0 -6 -40 -51 -89 -99 -53 -53 -95 -102 -102
-124 -17 -46 -41 -48 -33 -2 4 17 15 49 25 70 10 21 19 48 19 62 0 40 18 73
47 89 34 18 133 21 133 4z m163 -350 c3 -12 4 -25 1 -30 -9 -13 -34 12 -34 33
0 26 26 24 33 -3z m-1183 -938 c-24 -15 -37 -11 -16 5 11 8 22 12 25 9 3 -3
-1 -9 -9 -14z m420 -340 c0 -5 -4 -10 -10 -10 -5 0 -10 5 -10 10 0 6 5 10 10
10 6 0 10 -4 10 -10z"/>
<path d="M1235 3618 c4 -18 10 -75 13 -126 4 -51 12 -96 18 -100 12 -8 28 -45
15 -38 -12 8 -32 -95 -30 -156 1 -29 -2 -62 -8 -73 -13 -25 -15 -148 -4 -178
5 -14 26 -30 49 -39 l40 -15 13 41 c7 22 23 52 36 67 28 31 29 53 3 72 -32 23
-50 68 -50 132 0 33 -5 78 -11 100 -13 52 -14 48 10 134 11 40 21 96 22 124 3
42 -1 53 -20 68 -14 12 -39 19 -63 19 -40 0 -40 0 -33 -32z"/>
<path d="M1947 3643 c-2 -5 0 -93 4 -198 4 -104 8 -211 8 -236 1 -34 6 -49 18
-53 28 -11 34 15 27 120 -5 75 -3 117 9 165 8 35 18 94 22 130 l6 66 -32 7
c-41 8 -57 8 -62 -1z"/>
<path d="M1 3553 c0 -58 3 -81 9 -68 12 28 12 143 0 150 -6 4 -10 -26 -9 -82z"/>
<path d="M1517 3423 c-12 -11 -8 -40 8 -53 11 -9 36 -10 97 -4 74 8 83 11 86
30 2 15 -4 23 -20 28 -31 8 -163 8 -171 -1z"/>
<path d="M2 3019 c0 -46 3 -70 5 -52 3 26 12 36 48 53 38 18 43 25 35 40 -5
10 -20 20 -34 24 -13 3 -31 9 -40 12 -14 5 -16 -5 -14 -77z"/>
<path d="M1076 3081 c-4 -7 -5 -15 -2 -18 9 -9 19 4 14 18 -4 11 -6 11 -12 0z"/>
<path d="M1040 2978 c0 -10 6 -18 13 -18 6 -1 3 -6 -8 -13 -23 -14 -33 -49
-13 -46 46 6 66 -39 50 -114 -6 -29 -14 -77 -18 -107 -4 -30 -7 -59 -8 -65 -1
-5 -5 -16 -9 -22 -5 -7 -5 -17 -2 -23 9 -14 72 -12 77 3 10 27 -9 353 -23 387
-16 39 -59 53 -59 18z"/>
<path d="M990 2950 c0 -5 5 -10 11 -10 5 0 7 5 4 10 -3 6 -8 10 -11 10 -2 0
-4 -4 -4 -10z"/>
<path d="M1264 2840 c-16 -6 -22 -20 -27 -62 -12 -94 -8 -213 7 -233 12 -16
11 -21 -1 -33 -10 -10 -12 -28 -8 -61 3 -25 8 -65 11 -88 6 -49 41 -81 107
-101 43 -12 54 -1 43 42 -3 14 -1 37 6 53 6 15 12 37 12 48 1 16 7 19 34 17
23 -2 32 1 32 12 0 33 -13 46 -45 46 -19 0 -37 5 -40 10 -3 6 -14 10 -24 10
-11 0 -29 8 -42 19 l-23 18 27 18 c30 20 34 51 17 146 -5 30 -12 75 -15 102
-5 40 -9 47 -28 46 -12 0 -31 -4 -43 -9z"/>
<path d="M705 2668 c-43 -57 -56 -68 -90 -74 l-40 -8 35 -7 c19 -3 54 -11 78
-17 36 -9 44 -8 49 5 4 9 -1 21 -10 28 -16 11 -15 16 8 60 43 80 25 88 -30 13z"/>
<path d="M1611 2711 c-13 -23 -5 -51 14 -51 18 0 37 26 33 47 -5 25 -35 28
-47 4z"/>
<path d="M1465 2686 c-10 -7 -15 -18 -11 -24 9 -15 18 -15 40 1 15 11 16 15 4
25 -11 9 -19 9 -33 -2z"/>
<path d="M870 2638 c-23 -50 -25 -69 -9 -85 19 -19 36 8 44 70 9 70 -7 77 -35
15z"/>
<path d="M3137 2533 c-27 -7 -11 -21 18 -16 13 3 22 9 19 14 -5 9 -8 10 -37 2z"/>
<path d="M1980 2500 c-25 -6 -25 -7 -23 -104 1 -54 6 -103 12 -109 8 -8 11 -8
11 0 0 6 7 18 15 27 23 23 65 159 54 172 -13 16 -39 21 -69 14z"/>
<path d="M912 2486 l-54 -11 40 -41 c84 -86 108 -178 57 -222 -14 -12 -25 -27
-25 -33 0 -7 -10 -21 -23 -33 -13 -12 -26 -28 -30 -36 -4 -8 -14 -25 -23 -38
-16 -21 -15 -22 19 -37 20 -8 51 -15 69 -15 20 0 44 -10 63 -25 l30 -25 -30
-25 c-16 -14 -34 -24 -40 -24 -22 3 -35 -2 -35 -11 0 -5 9 -10 20 -10 11 0 20
-4 20 -10 0 -5 7 -10 15 -10 9 0 27 -26 43 -62 24 -51 30 -58 37 -42 5 10 10
174 12 363 2 267 0 347 -10 353 -17 11 -91 8 -155 -6z"/>
<path d="M1410 2072 c0 -91 0 -92 24 -92 14 0 28 5 31 10 7 11 -32 149 -46
165 -5 5 -9 -30 -9 -83z"/>
<path d="M1678 2139 c-11 -6 -18 -22 -18 -40 0 -27 3 -30 28 -27 24 3 27 7 27
37 0 37 -11 46 -37 30z"/>
<path d="M1230 2048 c0 -65 11 -91 32 -70 12 12 0 95 -18 119 -12 16 -13 10
-14 -49z"/>
<path d="M2183 2099 c-14 -14 -6 -39 13 -39 7 0 24 5 38 12 20 9 23 14 15 25
-14 16 -51 17 -66 2z"/>
<path d="M17 2086 c-20 -15 -22 -37 -5 -54 18 -18 43 -15 63 8 17 19 17 21 0
40 -21 23 -33 24 -58 6z"/>
<path d="M1960 2071 c0 -6 4 -13 10 -16 6 -3 7 1 4 9 -7 18 -14 21 -14 7z"/>
<path d="M1240 1915 c-10 -12 -6 -47 20 -182 32 -164 32 -168 16 -214 -10 -26
-16 -62 -14 -80 3 -37 1 -36 151 -59 61 -9 85 -9 108 0 28 12 37 29 22 44 -4
4 -8 26 -8 49 0 39 -3 43 -43 63 -38 20 -46 21 -85 9 -43 -13 -44 -13 -60 15
-20 32 -12 110 22 225 30 99 28 121 -10 134 -45 16 -104 14 -119 -4z"/>
<path d="M3506 1852 c-3 -5 0 -57 6 -115 l12 -105 -35 -57 c-50 -84 -153 -177
-241 -218 -70 -33 -194 -67 -245 -67 -13 0 -21 -4 -18 -10 3 -5 0 -8 -7 -5 -7
3 -30 -5 -52 -18 -32 -18 -43 -33 -62 -86 -19 -51 -22 -66 -12 -73 7 -4 16 -8
21 -8 14 0 7 -37 -12 -54 -11 -10 -24 -30 -31 -46 -7 -16 -22 -31 -36 -34 -14
-4 -22 -11 -18 -17 4 -8 9 -7 15 2 7 11 9 11 9 1 0 -7 -7 -15 -16 -19 -13 -5
-12 -9 7 -29 16 -17 33 -24 61 -24 l39 0 -1 -112 c-1 -62 -1 -258 -1 -436 l1
-322 517 0 c285 1 512 4 506 8 -12 8 -12 60 1 81 5 8 4 16 -5 22 -11 6 -9 13
9 32 20 21 21 25 7 31 -9 3 -14 10 -10 16 3 5 10 33 15 62 15 82 33 141 53
171 9 14 17 34 17 44 0 10 9 43 20 73 12 30 30 102 41 160 25 130 24 122 33
198 5 34 12 62 17 62 8 0 20 -48 23 -95 0 -14 5 -25 9 -25 5 0 5 -6 0 -12 -4
-7 -6 -25 -4 -40 1 -15 -4 -53 -12 -85 -10 -40 -14 -88 -10 -152 2 -51 1 -101
-3 -110 -13 -29 -14 -94 -2 -108 9 -11 9 -16 -1 -22 -7 -5 -11 -17 -10 -27 2
-11 0 -25 -4 -31 -5 -8 -4 -13 2 -13 14 0 14 -47 1 -55 -5 -3 -10 3 -10 14 0
12 -7 21 -15 21 -14 0 -13 -3 1 -25 11 -16 14 -36 11 -54 -6 -28 12 -59 26
-45 3 3 10 -4 17 -15 6 -12 17 -21 25 -21 9 0 15 -10 15 -26 0 -20 -4 -24 -19
-19 -11 3 -22 1 -26 -5 -4 -7 37 -10 127 -10 l133 0 3 42 c2 24 7 47 12 52 17
17 36 -2 38 -38 2 -30 -2 -38 -20 -46 -21 -8 -20 -9 10 -9 l33 -1 -3 63 c-3
52 -6 62 -21 61 -14 -2 -16 3 -11 20 3 11 13 26 21 33 11 9 13 29 8 100 -3 48
-8 108 -11 132 -11 78 -8 292 5 396 15 122 26 166 56 227 13 25 21 49 18 51
-3 3 -1 12 3 19 27 42 6 82 -37 73 -15 -4 -38 -1 -51 6 -22 11 -22 11 -6 -7
14 -16 14 -22 4 -36 -19 -25 -23 -23 -30 17 -4 19 -10 34 -14 34 -29 -5 -53 4
-63 23 -8 16 -9 23 -1 26 6 2 8 10 5 18 -3 8 1 14 11 14 9 0 16 -4 16 -10 0
-5 17 -10 38 -10 21 0 43 -5 49 -11 7 -7 13 -7 17 -1 8 13 -111 42 -149 36
-25 -3 -26 -3 -10 5 19 9 19 10 -3 10 -12 1 -33 7 -45 15 -12 8 -33 17 -46 21
l-23 7 23 -31 c12 -17 29 -31 37 -31 11 0 12 -7 7 -27 -5 -16 -9 -41 -11 -56
-1 -15 -8 -34 -14 -42 -10 -12 -10 -19 4 -33 9 -10 16 -23 16 -28 0 -5 9 -10
19 -10 14 0 21 10 25 37 6 37 28 65 44 55 15 -9 3 -87 -18 -116 -28 -39 -25
-67 14 -162 39 -95 56 -183 34 -176 -15 5 -58 85 -94 173 -13 33 -45 87 -70
120 -65 85 -74 112 -81 238 -3 62 -10 113 -14 115 -4 2 -5 10 -2 18 3 7 -2 17
-12 20 -9 4 -14 13 -11 21 3 8 2 11 -3 8 -5 -3 -12 3 -15 13 -7 22 -85 49 -95
34 -3 -5 -16 -12 -28 -16 -17 -5 -22 -4 -18 6 7 18 -15 48 -22 31 -2 -7 -12
-13 -20 -13 -13 0 -13 -3 -3 -15 7 -9 10 -18 7 -22 -9 -8 -35 15 -42 36 -3 10
-18 24 -33 30 l-27 13 24 -26 25 -26 -30 10 c-39 14 -56 29 -74 65 -33 70 -90
105 -68 44 8 -23 8 -37 0 -49 -14 -23 -18 -156 -5 -172 16 -20 8 -206 -10
-253 l-16 -40 -2 58 c-1 31 -3 62 -4 67 -1 6 -3 17 -4 25 -2 25 -25 17 -55
-21 -22 -28 -30 -52 -38 -112 -5 -42 -14 -82 -20 -89 -6 -7 -11 -31 -12 -53 0
-22 -4 -40 -8 -40 -5 0 -8 3 -9 8 -9 93 -7 120 10 125 12 3 18 15 19 39 2 42
27 123 50 158 37 57 67 126 64 148 -5 30 -14 28 -36 -9 -21 -35 -93 -109 -107
-109 -5 0 -6 6 -3 14 3 8 -2 17 -14 20 -10 4 -25 19 -32 34 -7 15 -16 35 -21
44 -14 28 -12 33 32 77 46 46 54 48 68 24 9 -16 10 -16 11 5 0 16 -6 22 -22
23 -13 0 -17 3 -10 6 7 2 25 30 40 61 24 50 27 69 26 150 0 80 -3 95 -21 113
-12 12 -23 17 -27 11z m264 -377 c7 -8 8 -15 2 -15 -5 0 -15 7 -22 15 -7 8 -8
15 -2 15 5 0 15 -7 22 -15z m155 -151 c35 -43 35 -48 9 -53 -10 -2 -16 0 -13
3 3 3 -12 25 -33 48 -35 38 -88 121 -88 137 0 7 82 -81 125 -135z m-127 82
c14 -37 92 -139 143 -184 34 -31 36 -49 2 -38 -10 3 -33 20 -51 37 -18 17 -35
29 -37 27 -2 -2 8 -44 21 -93 32 -113 33 -122 37 -223 2 -68 0 -82 -11 -77
-11 4 -13 -2 -10 -25 3 -20 0 -30 -9 -30 -13 0 -15 9 -19 135 -3 108 -9 143
-41 240 -17 50 -33 120 -37 158 -4 37 -11 78 -16 92 -7 18 -6 23 4 19 7 -3 18
-20 24 -38z m172 24 c0 -23 -25 -27 -33 -6 -7 16 1 26 20 26 7 0 13 -9 13 -20z
m-280 -35 c0 -8 -4 -15 -10 -15 -5 0 -7 7 -4 15 4 8 8 15 10 15 2 0 4 -7 4
-15z m74 -217 c0 -74 -8 -138 -16 -138 -5 0 -8 -6 -8 -14 0 -19 -15 -28 -51
-32 -34 -4 -36 -1 -9 26 11 11 20 31 20 44 0 13 7 29 16 36 8 8 14 25 13 39
-1 14 1 46 5 69 11 59 29 40 30 -30z m162 -12 c18 -18 18 -26 0 -26 -7 0 -16
9 -19 20 -6 24 -1 25 19 6z m-265 -258 c-8 -13 -15 -41 -16 -63 -1 -22 -7 -51
-13 -65 -7 -17 -6 -29 1 -38 7 -9 7 -16 0 -20 -5 -4 -13 -14 -16 -22 -4 -12
-6 -12 -6 2 -1 9 -5 19 -9 22 -4 2 -6 -11 -4 -30 3 -20 0 -34 -7 -34 -6 0 -9
20 -6 58 6 78 7 82 17 82 5 0 8 6 7 13 -1 6 0 19 4 27 3 8 8 33 11 54 6 41 24
62 41 45 6 -6 5 -17 -4 -31z m-177 -24 c8 -22 -4 -40 -15 -23 -11 18 -11 39 0
39 5 0 12 -7 15 -16z m196 -5 c0 -6 -4 -7 -10 -4 -5 3 -10 11 -10 16 0 6 5 7
10 4 6 -3 10 -11 10 -16z m-293 -131 c-3 -8 -6 -5 -6 6 -1 11 2 17 5 13 3 -3
4 -12 1 -19z m499 3 c-10 -16 -46 -20 -46 -5 0 8 10 14 26 14 14 0 23 -4 20
-9z m-16 -46 c0 -8 -4 -15 -10 -15 -5 0 -10 7 -10 15 0 8 5 15 10 15 6 0 10
-7 10 -15z m-478 -37 c-7 -7 -12 -8 -12 -2 0 14 12 26 19 19 2 -3 -1 -11 -7
-17z m-12 -43 c0 -8 -4 -15 -10 -15 -5 0 -10 7 -10 15 0 8 5 15 10 15 6 0 10
-7 10 -15z m220 -20 c0 -15 6 -25 14 -25 12 0 30 -39 22 -47 -2 -2 -14 2 -27
9 -19 10 -24 21 -24 51 -1 20 3 37 7 37 4 0 8 -11 8 -25z m-227 -70 c-7 -22
-11 -25 -20 -14 -15 19 3 67 18 52 8 -8 8 -21 2 -38z m847 -50 c0 -8 -4 -17
-10 -20 -6 -4 -10 5 -10 20 0 15 4 24 10 20 6 -3 10 -12 10 -20z m-585 -24
c-3 -12 -11 -21 -16 -21 -14 0 -11 38 4 43 17 6 20 2 12 -22z m-295 -18 c-5
-20 -6 -42 -3 -47 4 -7 1 -6 -6 0 -13 12 -5 84 9 84 4 0 4 -17 0 -37z m868
-63 c-2 -33 -2 -60 2 -60 3 0 7 -11 8 -25 1 -14 -3 -25 -8 -25 -6 0 -10 -7
-10 -15 0 -8 -5 -15 -11 -15 -11 0 -8 81 5 160 2 14 5 28 5 33 1 4 4 7 7 7 4
0 4 -27 2 -60z m-8 -180 c0 -16 -4 -30 -9 -30 -10 0 -22 40 -15 52 11 18 24 6
24 -22z m-13 -46 c-3 -3 -12 -4 -19 -1 -8 3 -5 6 6 6 11 1 17 -2 13 -5z"/>
<path d="M5336 1751 c-7 -11 22 -71 35 -71 5 0 9 -9 9 -19 0 -22 44 -41 81
-34 15 3 36 -5 58 -21 27 -20 37 -23 51 -13 61 38 21 139 -45 113 -9 -3 -29 7
-49 24 -28 25 -42 30 -84 30 -28 0 -53 -4 -56 -9z"/>
<path d="M4750 1719 c-86 -12 -134 -31 -138 -54 -7 -36 -23 -45 -82 -45 -35 0
-62 -5 -68 -13 -7 -9 -11 -66 -9 -162 l2 -149 55 -23 c30 -12 87 -34 125 -49
93 -36 265 -145 265 -168 0 -7 63 -109 78 -124 16 -17 15 -7 -3 55 -17 56 -15
238 3 283 l9 25 6 -30 c3 -16 6 -56 6 -88 1 -68 21 -102 66 -111 22 -5 26 -9
16 -15 -7 -5 -21 -7 -30 -6 -9 1 -10 0 -3 -2 15 -5 16 -23 2 -23 -7 0 -10 -19
-9 -45 2 -33 7 -45 18 -46 10 0 6 -4 -8 -10 -13 -5 -22 -11 -19 -14 7 -8 138
7 138 16 0 4 7 15 16 23 8 9 11 16 5 16 -6 0 -11 5 -11 10 0 14 27 12 33 -2 3
-10 7 -10 17 -1 10 9 9 15 -4 28 -9 9 -16 22 -16 29 0 16 45 37 65 30 23 -9
29 -44 11 -62 -14 -15 -13 -17 16 -29 21 -9 35 -10 43 -3 9 8 14 6 18 -4 4 -9
34 -19 81 -27 50 -8 73 -15 69 -23 -3 -6 0 -5 8 2 9 9 10 15 2 23 -6 6 -9 18
-6 25 4 10 0 12 -11 8 -14 -5 -13 0 5 30 26 44 20 62 -20 71 -17 4 -31 11 -31
16 0 12 -57 35 -125 49 -55 11 -61 15 -123 88 -11 12 -24 22 -31 22 -6 0 -11
6 -11 13 0 29 31 201 39 216 10 19 -7 67 -33 94 -10 9 -30 17 -46 17 -15 0
-40 6 -55 14 -15 8 -34 12 -42 9 -8 -3 -24 4 -36 15 -12 11 -43 30 -69 42 -27
12 -48 28 -48 34 0 14 -43 37 -63 35 -7 -1 -37 -5 -67 -10z m78 -52 c23 -27
-32 -56 -83 -43 -34 9 -31 23 8 40 41 18 62 19 75 3z m312 -638 c0 -18 -18 -9
-23 12 -4 16 -3 18 9 8 8 -6 14 -15 14 -20z m302 6 c33 8 50 -8 46 -41 -3 -25
-7 -29 -33 -27 -67 3 -113 26 -115 56 0 14 44 25 62 16 10 -5 28 -7 40 -4z
m31 -92 c-7 -2 -19 -2 -25 0 -7 3 -2 5 12 5 14 0 19 -2 13 -5z"/>
<path d="M1047 1515 c-8 -52 -32 -75 -77 -75 -20 0 -41 5 -47 11 -18 18 -142
14 -161 -5 -11 -10 -12 -16 -4 -16 18 0 15 -45 -4 -61 -17 -14 -15 -14 -257
-10 l-168 4 -40 -33 c-22 -17 -47 -33 -54 -34 -30 -4 -24 -14 12 -21 20 -4 55
-16 78 -28 38 -20 57 -21 372 -25 183 -2 345 -1 359 2 l25 7 -6 146 c-6 152
-17 206 -28 138z"/>
<path d="M1615 1473 c-10 -21 -25 -45 -32 -54 -24 -28 -6 -46 47 -48 l50 -1 0
33 c0 18 6 39 12 45 10 10 6 18 -17 37 -17 13 -32 24 -35 25 -3 0 -14 -17 -25
-37z"/>
<path d="M3440 1423 c0 -4 8 -17 16 -28 15 -20 16 -20 12 4 -3 22 -28 44 -28
24z"/>
<path d="M0 1393 c0 -25 1 -26 16 -11 9 9 13 21 10 27 -13 20 -26 11 -26 -16z"/>
<path d="M1770 1370 c0 -5 5 -10 10 -10 6 0 10 5 10 10 0 6 -4 10 -10 10 -5 0
-10 -4 -10 -10z"/>
<path d="M5528 1273 c7 -3 16 -2 19 1 4 3 -2 6 -13 5 -11 0 -14 -3 -6 -6z"/>
<path d="M5509 1247 c6 -8 8 -17 4 -21 -4 -4 0 -4 10 0 14 5 15 9 6 20 -6 8
-16 14 -21 14 -7 0 -6 -5 1 -13z"/>
<path d="M4550 1210 c8 -5 22 -9 30 -9 10 0 8 3 -5 9 -27 12 -43 12 -25 0z"/>
<path d="M5640 1146 c0 -19 -3 -42 -7 -52 -4 -12 -2 -15 8 -12 16 5 25 83 10
93 -7 4 -11 -7 -11 -29z"/>
<path d="M0 1022 c0 -20 6 -21 103 -21 163 0 377 -13 377 -22 0 -5 -19 -10
-42 -10 -26 -1 -34 -4 -19 -6 39 -8 90 6 102 28 6 12 9 22 7 25 -2 2 -103 6
-224 8 -120 3 -238 8 -261 12 -39 6 -43 5 -43 -14z"/>
<path d="M4577 959 c-10 -28 -17 -59 -17 -68 0 -9 -9 -34 -20 -56 -11 -22 -20
-45 -20 -52 0 -7 -7 -13 -16 -13 -9 0 -12 -5 -8 -12 4 -6 1 -16 -7 -22 -8 -6
-14 -15 -14 -21 -1 -5 -4 -41 -8 -80 -4 -38 -4 -83 1 -100 l9 -30 13 45 c6 25
17 52 24 60 11 14 55 102 72 145 4 11 9 31 10 44 2 14 7 36 13 50 12 35 9 153
-5 158 -6 2 -18 -20 -27 -48z"/>
<path d="M0 816 c0 -129 3 -176 12 -176 6 0 44 9 82 20 77 21 203 43 335 60
46 5 95 17 108 25 24 16 32 55 11 55 -9 0 -13 19 -14 59 -2 94 8 89 -213 96
-107 4 -202 10 -210 14 -9 5 -37 12 -63 15 l-48 7 0 -175z m203 37 c-7 -2 -19
-2 -25 0 -7 3 -2 5 12 5 14 0 19 -2 13 -5z"/>
<path d="M4660 758 c0 -9 5 -20 11 -23 17 -11 18 -2 3 19 -12 17 -14 17 -14 4z"/>
<path d="M4591 666 c-12 -14 -6 -66 8 -66 25 1 31 18 18 49 -12 27 -16 30 -26
17z"/>
<path d="M4697 623 c-6 -16 -14 -30 -17 -33 -6 -6 -35 -59 -62 -112 -10 -21
-25 -38 -33 -38 -8 0 -12 -6 -9 -14 3 -9 -3 -20 -15 -28 -12 -7 -21 -20 -21
-30 0 -9 -4 -20 -10 -23 -5 -3 -10 3 -10 14 0 11 5 23 10 26 6 3 10 17 10 31
0 17 8 27 26 35 25 9 26 11 9 23 -16 12 -16 14 4 53 l20 41 -22 15 c-23 15
-24 14 -60 -62 -29 -60 -37 -89 -37 -132 0 -48 3 -58 23 -68 l22 -11 -24 6
c-20 5 -23 3 -18 -11 4 -9 7 -46 7 -81 0 -35 3 -64 8 -64 6 0 47 68 126 210 8
14 26 63 41 110 14 47 30 94 35 105 14 32 22 65 15 65 -3 0 -11 -12 -18 -27z"/>
<path d="M4702 389 c-38 -52 -84 -107 -102 -124 -17 -16 -41 -47 -52 -69 -17
-33 -47 -149 -48 -183 0 -10 38 -13 159 -13 l159 0 6 24 c3 14 12 31 19 38 19
21 47 86 47 112 0 22 -2 23 -25 13 -14 -7 -25 -15 -25 -18 0 -3 -8 -16 -18
-27 -17 -19 -21 -20 -38 -7 -17 13 -17 14 -1 15 19 0 25 46 7 52 -10 3 7 66
21 78 11 10 18 40 9 40 -6 0 -10 -4 -10 -10 0 -5 -9 -19 -20 -30 -11 -11 -20
-29 -20 -40 0 -11 -4 -20 -10 -20 -5 0 -10 9 -10 20 0 11 -3 20 -6 20 -12 0
-50 -24 -60 -38 -6 -9 -13 -11 -17 -5 -10 15 4 53 19 53 8 0 14 8 14 18 0 10
18 42 40 71 44 58 58 97 42 113 -7 7 -32 -19 -80 -83z"/>
<path d="M88 133 c6 -2 18 -2 25 0 6 3 1 5 -13 5 -14 0 -19 -2 -12 -5z"/>
<path d="M170 123 c0 -5 -38 -7 -85 -5 l-85 3 0 -60 0 -61 290 0 c270 0 290 1
290 18 0 34 -17 45 -70 48 -29 1 -80 7 -113 13 -34 5 -83 13 -109 16 -32 4
-48 11 -48 21 0 9 -11 14 -35 14 -19 0 -35 -3 -35 -7z"/>
<path d="M4915 20 c-3 -5 -2 -10 4 -10 5 0 13 5 16 10 3 6 2 10 -4 10 -5 0
-13 -4 -16 -10z"/>
</g>
</svg>
